<?xml version="1.0" standalone="no"?>
<!DOCTYPE svg PUBLIC "-//W3C//DTD SVG 20010904//EN"
 "http://www.w3.org/TR/2001/REC-SVG-20010904/DTD/svg10.dtd">
<svg version="1.0" xmlns="http://www.w3.org/2000/svg"
 width="198.000000pt" height="198.000000pt" viewBox="0 0 198.000000 198.000000"
 preserveAspectRatio="xMidYMid meet">
<metadata>
Created by potrace 1.11, written by Peter Selinger 2001-2013
</metadata>
<g transform="translate(0.000000,198.000000) scale(0.100000,-0.100000)"
fill="#000000" stroke="none">
<path d="M825 1741 c-251 -147 -488 -283 -527 -305 -21 -11 -38 -27 -39 -35
-3 -71 -1 -832 2 -835 5 -4 257 -150 319 -184 25 -14 126 -72 224 -130 l179
-104 41 23 c23 12 136 77 251 144 116 67 261 150 322 186 l113 64 1 45 c1 61
1 202 0 217 -1 9 -23 12 -73 10 l-73 -2 0 -87 c0 -47 -4 -90 -8 -95 -9 -9 -70
-45 -157 -93 -30 -16 -62 -35 -70 -40 -8 -6 -89 -53 -180 -105 l-165 -94 -40
23 c-22 13 -58 34 -80 46 -22 12 -69 39 -105 60 -36 21 -81 47 -100 58 -164
92 -237 136 -245 147 -7 8 -10 130 -9 336 1 178 2 327 3 331 1 4 512 303 571
334 3 1 136 -72 295 -164 l288 -167 3 -37 c2 -44 -6 -48 -91 -44 -57 2 -72 10
-275 127 l-214 125 -156 -90 c-85 -49 -183 -105 -217 -125 l-63 -35 -1 -50
c-2 -127 -1 -148 7 -156 5 -5 50 -20 99 -35 109 -32 250 -74 388 -116 56 -17
128 -38 160 -46 31 -9 57 -18 57 -22 0 -13 -272 -162 -286 -157 -21 8 -256
147 -274 161 -9 7 -43 13 -82 13 -74 0 -76 -2 -70 -68 4 -35 7 -37 217 -159
118 -68 217 -123 220 -123 4 0 103 55 221 123 162 94 214 129 215 144 4 80 0
178 -7 185 -5 4 -165 54 -356 111 -192 57 -348 106 -348 110 0 4 15 14 33 24
17 9 41 22 52 28 122 71 185 107 190 107 11 0 284 -161 290 -171 4 -5 98 -9
221 -9 l214 0 1 33 c0 17 1 78 2 135 l2 102 -205 119 c-113 65 -221 128 -240
138 -19 11 -90 52 -157 92 -68 39 -126 71 -130 70 -5 0 -75 -40 -158 -88z"/>
</g>
</svg>
