<?xml version="1.0" encoding="utf-8"?>
<!-- Generator: Adobe Illustrator 16.0.0, SVG Export Plug-In . SVG Version: 6.00 Build 0)  -->
<!DOCTYPE svg PUBLIC "-//W3C//DTD SVG 1.1//EN" "http://www.w3.org/Graphics/SVG/1.1/DTD/svg11.dtd">
<svg version="1.1" id="Layer_1" xmlns="http://www.w3.org/2000/svg" xmlns:xlink="http://www.w3.org/1999/xlink" x="0px" y="0px"
	 width="119.739px" height="36.996px" viewBox="0 0 119.739 36.996" enable-background="new 0 0 119.739 36.996"
	 xml:space="preserve">
<path fill="none" stroke="#D6D6D6" d="M16.401,26.328c-2.041,0-3.792-0.702-5.251-2.106c-1.46-1.404-2.189-3.089-2.189-5.056
	s0.729-3.649,2.189-5.047c1.459-1.397,3.21-2.097,5.251-2.097c1.385,0,2.678,0.353,3.878,1.058l4.435-4.435
	c-2.474-1.793-5.245-2.69-8.313-2.69c-3.785,0-7.023,1.293-9.713,3.878c-2.69,2.585-4.036,5.696-4.036,9.333
	c0,3.649,1.345,6.767,4.036,9.352c2.69,2.585,5.928,3.878,9.713,3.878c2.87,0,5.492-0.798,7.867-2.394l-4.472-4.472
	C18.708,26.063,17.576,26.328,16.401,26.328z"/>
<path fill="none" stroke="#D6D6D6" d="M47.436,21.597c1.93-0.965,3.207-2.26,3.832-3.887c0.625-1.626,0.776-3.253,0.455-4.88
	c-0.322-1.626-1.033-3.092-2.134-4.397c-1.101-1.305-2.406-2.125-3.915-2.458H31.98v25.179l0.872,1.225l5.455-6.086V22.84h2.746
	l4.026,9.63h6.995L47.436,21.597z"/>
<path fill="none" stroke="#D6D6D6" d="M44.708,11.614h-6.847v5.232h6.847c1.15-0.272,1.8-1.101,1.948-2.486
	C46.805,12.975,46.156,12.06,44.708,11.614z"/>
<polygon fill="none" stroke="#D6D6D6" points="79.621,5.974 72.589,20.873 65.965,6.066 57.968,6.066 57.968,31.468 58.896,32.451 
	63.646,27.59 63.646,15.845 70.548,31.227 74.723,31.227 81.439,15.251 81.439,32.451 86.505,32.433 86.505,5.974 "/>
<path fill="none" stroke="#D6D6D6" d="M91.433,5.974v6.494h12.209c1.806,0.359,3.114,1.234,3.924,2.625
	c0.81,1.392,1.184,2.87,1.123,4.435c-0.062,1.565-0.529,2.991-1.401,4.277c-0.872,1.287-2.087,2.004-3.646,2.152h-5.529v-8.851
	l-0.761-0.891l-5.659,5.641v10.521h12.784c4.688-1.274,7.852-3.333,9.491-6.179c1.639-2.845,2.223-5.739,1.753-8.684
	c-0.47-2.944-1.76-5.56-3.869-7.849c-2.109-2.288-4.568-3.519-7.375-3.692H91.433z"/>
</svg>
